<?xml version="1.0" standalone="no"?><!DOCTYPE svg PUBLIC "-//W3C//DTD SVG 1.1//EN" "http://www.w3.org/Graphics/SVG/1.1/DTD/svg11.dtd"><svg height="300" node-id="1" sillyvg="true" template-height="126" template-width="126" version="1.1" viewBox="0 0 126 126" width="126" xmlns="http://www.w3.org/2000/svg" xmlns:xlink="http://www.w3.org/1999/xlink"><defs node-id="279"></defs><g node-id="994"><g node-id="995"><path d="M 19.25 86.09 C 20.66 85.88 34.07 90.28 35.50 96.29 C 36.92 102.31 47.65 108.57 52.22 107.02 C 56.79 105.48 62.78 107.13 62.78 107.13 L 66.56 108.96 L 67.42 109.37 L 67.42 109.37 L 125.00 76.12 L 60.97 38.90 L 5.02 71.21 C 3.45 72.11 2.15 73.45 1.47 75.13 C -2.31 84.35 17.95 86.27 19.25 86.09 Z" fill="#f3f6fd" fill-rule="nonzero" group-id="1,2" node-id="289" stroke="none" target-height="70.463" target-width="127.3061" target-x="-2.3061" target-y="38.9038"></path><g node-id="997"><path d="M 76.95 86.95 L 76.94 89.98 C 76.93 90.80 76.40 91.63 75.31 92.25 C 73.13 93.53 69.57 93.53 67.38 92.25 L 54.16 84.63 L 54.16 84.07 L 49.77 81.54 L 49.78 78.78 L 55.45 82.05 L 55.45 82.34 L 67.38 89.23 C 69.58 90.50 73.14 90.50 75.32 89.23 C 76.41 88.60 76.95 87.78 76.95 86.95 Z" fill="#e1e9f4" fill-rule="nonzero" group-id="1,2,4" node-id="293" stroke="none" target-height="14.745499" target-width="27.179699" target-x="49.7717" target-y="78.7834"></path></g><path d="M 70.26 83.66 C 70.02 83.48 67.82 83.79 67.42 83.74 C 67.22 83.72 67.02 83.71 66.81 83.72 C 65.74 83.74 65.32 83.82 64.92 84.01 C 64.63 84.14 64.39 82.24 64.37 82.44 C 64.37 82.45 64.11 82.06 64.09 82.07 C 63.15 82.06 62.88 82.27 62.51 82.45 C 62.23 82.58 61.55 85.73 61.53 85.93 C 61.53 85.93 60.04 87.24 59.67 88.57 C 59.55 88.99 59.11 89.35 58.47 89.88 C 57.18 90.92 56.97 93.30 55.92 94.71 C 55.66 95.05 55.46 95.30 55.29 95.50 C 54.85 96.03 54.75 96.78 55.07 97.40 C 55.02 97.51 55.00 97.61 54.87 97.71 C 54.77 97.78 54.63 97.84 54.53 97.91 C 54.45 97.97 54.40 98.04 54.35 98.11 C 54.26 98.24 54.17 98.37 54.08 98.51 C 54.02 98.60 53.94 98.71 54.01 98.80 C 54.05 98.85 54.13 98.89 54.19 98.94 C 54.19 98.94 54.19 98.94 54.19 98.94 C 54.04 99.42 54.34 99.56 54.34 99.56 C 54.92 100.27 58.00 99.84 58.35 99.18 C 58.40 99.08 58.42 99.00 58.42 98.94 C 58.51 98.82 58.61 98.67 58.67 98.53 C 58.74 98.35 58.97 97.61 58.67 97.28 C 58.59 97.19 58.40 97.20 58.17 97.26 C 58.19 97.19 58.20 97.14 58.23 97.07 C 58.50 96.99 59.44 96.71 60.19 96.53 C 60.26 96.52 60.32 96.50 60.37 96.48 C 60.48 96.50 60.59 96.51 60.70 96.51 C 62.06 96.56 64.09 96.32 64.30 96.38 C 64.51 96.44 65.46 96.60 65.75 96.63 C 66.05 96.64 67.23 96.75 67.23 96.75 C 67.30 96.73 67.36 96.71 67.41 96.69 C 67.42 96.71 67.41 96.75 67.45 96.81 C 67.53 96.92 67.65 97.03 67.82 97.12 C 67.82 97.13 67.83 97.14 67.85 97.14 L 67.85 97.14 C 67.92 97.14 68.00 97.10 68.01 97.06 C 68.02 97.06 68.02 97.05 68.02 97.04 L 67.96 96.91 C 67.95 96.88 67.99 96.84 68.05 96.83 C 68.08 96.83 68.12 96.83 68.14 96.83 C 68.31 96.90 68.44 96.91 68.65 96.95 C 68.67 96.95 68.68 96.95 68.70 96.95 C 68.76 96.95 68.82 96.91 68.83 96.88 L 68.85 96.88 C 68.91 96.89 69.02 96.83 69.02 96.79 C 69.05 96.79 69.06 96.79 69.08 96.78 C 69.13 96.75 69.13 96.73 69.13 96.70 C 69.12 96.68 69.11 96.67 69.08 96.67 C 69.21 96.62 69.13 96.57 69.12 96.56 C 68.86 96.48 68.69 96.36 68.11 96.31 C 68.06 96.31 68.01 96.30 67.97 96.29 L 67.87 96.28 C 67.87 96.24 67.87 96.23 67.87 96.23 C 67.76 96.14 65.29 95.70 65.15 95.61 C 65.07 95.56 63.80 95.43 62.51 95.40 C 62.89 95.13 62.72 94.77 62.48 94.61 C 62.34 94.53 62.06 94.10 62.07 93.90 C 62.09 93.55 62.63 92.83 62.92 92.46 C 63.30 91.98 63.83 91.43 63.83 91.43 C 63.79 91.41 63.74 91.39 63.70 91.36 C 63.91 91.07 64.42 90.17 64.43 88.55 C 64.43 88.28 64.49 88.01 64.61 87.73 C 64.86 87.13 65.10 86.45 65.33 85.96 L 65.36 85.96 C 66.46 85.91 66.24 85.63 66.24 85.63 C 66.15 85.56 66.00 85.51 65.82 85.46 C 66.54 85.26 68.17 84.80 69.10 84.78 C 70.20 84.73 70.26 83.66 70.26 83.66 Z" fill="#e1e9f4" fill-rule="nonzero" group-id="1,2" node-id="296" stroke="none" target-height="18.214798" target-width="16.3149" target-x="53.9445" target-y="82.0586"></path><path d="M 54.47 66.52 C 54.48 67.39 53.86 68.46 53.10 68.90 L 48.63 71.48 L 50.37 72.48 L 50.36 73.09 L 42.51 77.66 L 34.46 73.01 L 34.47 72.40 L 37.25 70.78 L 30.17 66.67 L 30.17 65.93 L 30.58 65.68 L 31.13 65.37 L 31.12 64.79 L 30.16 64.24 L 30.16 63.51 L 39.74 57.97 C 40.11 57.76 40.47 57.74 40.71 57.88 L 54.00 65.60 C 54.02 65.62 54.05 65.63 54.07 65.65 C 54.31 65.78 54.47 66.09 54.47 66.52 Z" fill="#e1e9f4" fill-rule="nonzero" group-id="1,2,5,11,20,41" node-id="306" stroke="none" target-height="19.925198" target-width="24.3218" target-x="30.1559" target-y="57.7374"></path><path d="M 48.35 57.98 L 54.11 54.64 C 54.45 54.44 54.88 54.44 55.22 54.63 L 93.83 76.93 C 94.57 77.35 94.57 78.42 93.83 78.85 L 88.95 81.69 C 88.06 82.21 86.97 82.21 86.08 81.70 L 48.35 59.91 C 47.61 59.48 47.61 58.41 48.35 57.98 Z" fill="#e1e9f4" fill-rule="nonzero" group-id="1,2,6" node-id="314" stroke="none" target-height="27.772503" target-width="46.9664" target-x="47.6071" target-y="54.4352"></path><path d="M 11.62 67.39 L 48.07 88.29 L 56.79 83.26 L 20.34 62.36 L 20.87 62.06 L 57.31 82.96 L 84.51 67.25 L 48.07 46.35 L 48.59 46.05 L 85.04 66.95 L 93.75 61.92 L 57.31 41.02 L 57.83 40.71 L 122.11 77.79 L 121.59 78.09 L 94.17 62.16 L 85.45 67.19 L 112.87 83.13 L 112.35 83.43 L 84.93 67.49 L 76.13 72.57 L 103.55 88.51 L 103.18 88.72 L 75.76 72.79 L 66.88 77.91 L 94.31 93.85 L 93.94 94.06 L 66.52 78.12 L 57.72 83.20 L 85.15 99.13 L 84.62 99.44 L 57.20 83.50 L 48.48 88.53 L 75.90 104.47 L 75.38 104.77 L 11.10 67.70 Z" fill="#fdfeff" fill-rule="nonzero" group-id="1,2" node-id="317" stroke="none" target-height="64.059" target-width="111.0125" target-x="11.0989" target-y="40.7147"></path></g><g node-id="996"><g node-id="1000"><g node-id="1005"><g node-id="1014"><g node-id="1035"><g node-id="1060"><path d="M 70.33 36.31 L 70.40 19.86 L 66.82 17.79 L 66.75 34.90 C 67.92 35.34 69.15 35.78 70.33 36.31 Z" fill="#6b9ef9" fill-rule="nonzero" group-id="1,3,7,12,21,42,67" node-id="332" stroke="none" target-height="18.5107" target-width="3.6497955" target-x="66.7498" target-y="17.7944"></path></g><g node-id="1061"><path d="M 54.02 28.81 L 54.03 25.23 L 52.81 24.52 L 52.80 28.18 C 53.20 28.39 53.61 28.60 54.02 28.81 Z" fill="#4c4a8b" fill-rule="nonzero" group-id="1,3,7,12,21,42,68" node-id="337" stroke="none" target-height="4.2896004" target-width="1.2350006" target-x="52.7965" target-y="24.5226"></path></g><g node-id="1062"><path d="M 66.16 34.68 C 66.36 34.76 66.55 34.83 66.75 34.90 L 66.82 17.79 L 54.03 25.23 L 54.02 28.81 C 58.02 30.89 61.97 33.10 66.16 34.68 Z" fill="#3887e5" fill-rule="nonzero" group-id="1,3,7,12,21,42,69" node-id="342" stroke="none" target-height="17.107498" target-width="12.805798" target-x="54.0163" target-y="17.7943"></path></g><g node-id="1063"><path d="M 70.40 21.61 L 58.84 28.32 L 55.26 26.26 L 66.82 19.54 Z" fill="#ffffff" fill-rule="nonzero" group-id="1,3,7,12,21,42,70" node-id="347" stroke="none" target-height="8.783901" target-width="15.139095" target-x="55.2605" target-y="19.5411"></path></g><g node-id="1064"><path d="M 66.16 34.68 C 67.51 35.19 68.95 35.70 70.33 36.31 L 70.40 19.86 L 58.84 26.58 L 58.82 31.32 C 61.22 32.56 63.65 33.74 66.16 34.68 Z" fill="#dee7f8" fill-rule="nonzero" group-id="1,3,7,12,21,42,71" node-id="352" stroke="none" target-height="16.4453" target-width="11.581596" target-x="58.8179" target-y="19.8598"></path></g><g node-id="1065"><path d="M 66.16 34.68 C 68.18 35.44 70.40 36.19 72.33 37.31 L 72.40 19.86 C 72.40 20.01 72.30 20.16 72.10 20.28 L 58.82 28.00 L 58.81 31.32 C 61.22 32.55 63.65 33.73 66.16 34.68 Z" fill="#3887e5" fill-rule="nonzero" group-id="1,3,7,12,21,42,72" node-id="357" stroke="none" target-height="17.4484" target-width="13.592697" target-x="58.8107" target-y="19.8604"></path></g><g node-id="1066"><path d="M 72.10 19.44 C 72.50 19.67 72.50 20.05 72.10 20.28 L 58.83 28.00 L 57.61 27.29 L 58.84 26.58 L 70.40 19.86 L 66.82 17.79 L 54.03 25.23 L 52.81 24.52 L 66.09 16.81 C 66.49 16.57 67.14 16.57 67.55 16.81 L 72.10 19.44 Z" fill="#a6c2ff" fill-rule="nonzero" group-id="1,3,7,12,21,42,73" node-id="362" stroke="none" target-height="11.4203" target-width="19.6918" target-x="52.8121" target-y="16.5748"></path></g><path d="M 58.81 31.32 L 58.83 28.00 L 57.61 27.29 L 57.59 30.68 C 58.00 30.90 58.41 31.11 58.81 31.32 Z" fill="#4c4a8b" fill-rule="nonzero" group-id="1,3,7,12,21,42,74" node-id="367" stroke="none" target-height="4.023699" target-width="1.2317009" target-x="57.5947" target-y="27.2921"></path></g></g><g node-id="1015"><g node-id="1036"><g node-id="1068"><path d="M 79.68 23.39 L 79.60 42.14 L 76.03 40.08 L 76.10 21.33 Z" fill="#4c4a8b" fill-rule="nonzero" group-id="1,3,7,12,22,43,75" node-id="378" stroke="none" target-height="20.816698" target-width="3.6568985" target-x="76.025" target-y="21.3276"></path></g><g node-id="1069"><path d="M 63.29 33.49 L 63.31 28.76 L 62.09 28.06 L 62.07 32.93 C 62.48 33.12 62.89 33.30 63.29 33.49 Z" fill="#4c4a8b" fill-rule="nonzero" group-id="1,3,7,12,22,43,76" node-id="383" stroke="none" target-height="5.4302006" target-width="1.2402" target-x="62.0736" target-y="28.0562"></path></g><g node-id="1070"><path d="M 66.16 34.68 C 69.56 35.96 73.53 37.22 75.75 40.24 L 76.03 40.08 L 76.10 21.33 L 63.31 28.76 L 63.29 33.49 C 64.24 33.91 65.19 34.32 66.16 34.68 Z" fill="#3a3a77" fill-rule="nonzero" group-id="1,3,7,12,22,43,77" node-id="388" stroke="none" target-height="18.9121" target-width="12.8106" target-x="63.2938" target-y="21.3276"></path></g><g node-id="1071"><path d="M 79.68 25.14 L 68.12 31.86 L 64.54 29.79 L 76.10 23.07 Z" fill="#ffffff" fill-rule="nonzero" group-id="1,3,7,12,22,43,78" node-id="393" stroke="none" target-height="8.783901" target-width="15.139099" target-x="64.5428" target-y="23.0745"></path></g><g node-id="1072"><path d="M 76.48 41.41 C 76.56 41.58 76.61 41.74 76.64 41.91 C 77.31 42.15 77.97 42.42 78.64 42.70 L 79.60 42.14 L 79.68 23.39 L 68.12 30.11 L 68.10 35.40 C 71.40 36.65 74.83 38.16 76.48 41.41 Z" fill="#dee7f8" fill-rule="nonzero" group-id="1,3,7,12,22,43,79" node-id="398" stroke="none" target-height="19.310202" target-width="11.584099" target-x="68.0978" target-y="23.393"></path></g><g node-id="1073"><path d="M 76.48 41.41 C 76.56 41.58 76.61 41.74 76.64 41.91 C 77.77 42.32 78.89 42.79 80.02 43.31 L 81.30 42.57 C 81.50 42.45 81.60 42.30 81.61 42.15 L 81.69 23.39 C 81.69 23.54 81.58 23.70 81.38 23.81 L 68.11 31.53 L 68.09 35.40 C 71.40 36.65 74.83 38.16 76.48 41.41 Z" fill="#3a3a77" fill-rule="nonzero" group-id="1,3,7,12,22,43,80" node-id="403" stroke="none" target-height="19.918999" target-width="13.595001" target-x="68.0907" target-y="23.3936"></path></g><g node-id="1074"><path d="M 81.38 22.97 C 81.78 23.20 81.79 23.58 81.39 23.81 L 68.11 31.53 L 66.89 30.83 L 68.12 30.11 L 79.68 23.39 L 76.10 21.33 L 63.31 28.76 L 62.09 28.06 L 75.37 20.34 C 75.77 20.11 76.42 20.11 76.83 20.34 L 81.38 22.97 Z" fill="#6262aa" fill-rule="nonzero" group-id="1,3,7,12,22,43,81" node-id="408" stroke="none" target-height="11.420399" target-width="19.6917" target-x="62.0945" target-y="20.1081"></path></g><path d="M 68.09 35.40 L 68.11 31.53 L 66.89 30.83 L 66.87 34.95 C 67.28 35.10 67.68 35.25 68.09 35.40 Z" fill="#4c4a8b" fill-rule="nonzero" group-id="1,3,7,12,22,43,82" node-id="413" stroke="none" target-height="4.5762997" target-width="1.2347946" target-x="66.8738" target-y="30.8257"></path></g></g><g node-id="1016"><g node-id="1037"><g node-id="1076"><path d="M 81.00 43.77 C 81.40 43.97 81.81 44.16 82.23 44.36 L 82.28 31.58 L 78.71 29.51 L 78.65 42.71 C 79.43 43.04 80.21 43.39 81.00 43.77 Z" fill="#3887e5" fill-rule="nonzero" group-id="1,3,7,12,23,44,83" node-id="424" stroke="none" target-height="14.846399" target-width="3.6333008" target-x="78.651" target-y="29.5128"></path></g><g node-id="1077"><path d="M 76.48 41.41 C 76.56 41.58 76.61 41.74 76.64 41.91 C 77.31 42.15 77.98 42.42 78.65 42.71 L 78.71 29.51 L 68.38 35.51 C 71.60 36.74 74.88 38.25 76.48 41.41 Z" fill="#1e72c6" fill-rule="nonzero" group-id="1,3,7,12,23,44,84" node-id="429" stroke="none" target-height="13.194599" target-width="10.323204" target-x="68.3836" target-y="29.5127"></path></g><g node-id="1078"><path d="M 73.78 38.27 L 82.28 33.33 L 78.71 31.26 L 70.16 36.23 C 71.45 36.79 72.69 37.44 73.78 38.27 Z" fill="#ffffff" fill-rule="nonzero" group-id="1,3,7,12,23,44,85" node-id="434" stroke="none" target-height="7.006401" target-width="12.128799" target-x="70.1554" target-y="31.2599"></path></g><g node-id="1079"><path d="M 76.48 41.41 C 76.56 41.58 76.61 41.74 76.64 41.91 C 78.09 42.44 79.53 43.07 81.00 43.77 C 81.40 43.97 81.81 44.16 82.23 44.36 L 82.28 31.58 L 72.38 37.34 C 74.08 38.32 75.56 39.59 76.48 41.41 Z" fill="#dee7f8" fill-rule="nonzero" group-id="1,3,7,12,23,44,86" node-id="439" stroke="none" target-height="12.780699" target-width="9.907501" target-x="72.3767" target-y="31.5785"></path></g><g node-id="1080"><path d="M 76.48 41.41 C 76.56 41.58 76.61 41.74 76.64 41.91 C 78.09 42.44 79.53 43.07 81.00 43.77 C 82.05 44.28 83.20 44.79 84.23 45.40 L 84.29 31.58 C 84.29 31.73 84.19 31.88 83.99 32.00 L 73.53 38.08 C 74.74 38.95 75.77 40.02 76.48 41.41 Z" fill="#1e72c6" fill-rule="nonzero" group-id="1,3,7,12,23,44,87" node-id="444" stroke="none" target-height="13.8258" target-width="10.761299" target-x="73.5268" target-y="31.579"></path></g><path d="M 68.38 35.51 L 78.71 29.51 L 82.28 31.58 L 72.38 37.34 C 72.77 37.57 73.16 37.81 73.53 38.08 L 83.99 32.00 C 84.39 31.77 84.39 31.39 83.98 31.16 L 79.43 28.53 C 79.03 28.29 78.37 28.29 77.97 28.53 L 66.90 34.96 C 67.39 35.14 67.89 35.32 68.38 35.51 Z" fill="#6b9ef9" fill-rule="nonzero" group-id="1,3,7,12,23,44,88" node-id="449" stroke="none" target-height="9.783899" target-width="17.4851" target-x="66.9035" target-y="28.2937"></path></g></g><g node-id="1017"><g node-id="1038"><g node-id="1082"><path d="M 89.04 33.29 L 88.99 53.34 C 90.30 54.51 90.67 56.20 90.83 58.03 C 91.05 60.42 90.81 62.83 90.84 65.23 C 90.85 66.18 90.87 67.12 90.90 68.07 L 92.54 69.02 L 92.62 35.35 L 89.04 33.29 Z" fill="#4c4a8b" fill-rule="nonzero" group-id="1,3,7,12,24,45,89" node-id="460" stroke="none" target-height="35.729603" target-width="3.6248016" target-x="88.9934" target-y="33.286"></path></g><g node-id="1083"><path d="M 82.04 37.35 L 83.03 37.35 L 83.03 44.75 C 84.19 45.34 85.31 46.00 86.14 46.90 C 86.75 47.32 87.33 47.77 87.88 48.26 C 88.66 48.97 88.44 50.58 87.43 50.98 C 87.40 51.39 87.35 51.82 87.26 52.24 C 87.58 52.41 87.91 52.59 88.29 52.82 C 88.55 52.98 88.78 53.16 88.99 53.34 L 89.04 33.29 L 82.04 37.35 Z" fill="#3a3a77" fill-rule="nonzero" group-id="1,3,7,12,24,45,90" node-id="465" stroke="none" target-height="20.0587" target-width="6.9990997" target-x="82.0416" target-y="33.2859"></path></g><g node-id="1084"><path d="M 83.03 42.67 L 92.62 37.10 L 89.04 35.03 L 83.03 38.53 Z" fill="#ffffff" fill-rule="nonzero" group-id="1,3,7,12,24,45,91" node-id="470" stroke="none" target-height="7.6379967" target-width="9.590103" target-x="83.0281" target-y="35.0329"></path></g><g node-id="1085"><path d="M 83.03 40.92 L 83.03 44.75 C 84.19 45.34 85.31 46.00 86.14 46.90 C 86.75 47.32 87.33 47.77 87.88 48.26 C 88.66 48.97 88.44 50.58 87.43 50.98 C 87.40 51.39 87.35 51.82 87.26 52.24 C 87.58 52.41 87.91 52.59 88.29 52.82 C 90.19 53.97 90.64 55.90 90.83 58.03 C 91.05 60.42 90.81 62.83 90.84 65.23 C 90.86 66.80 90.90 68.37 90.94 69.94 L 92.54 69.02 L 92.62 35.35 L 83.03 40.92 Z" fill="#dee7f8" fill-rule="nonzero" group-id="1,3,7,12,24,45,92" node-id="475" stroke="none" target-height="34.592403" target-width="9.590004" target-x="83.0282" target-y="35.3514"></path></g><g node-id="1086"><path d="M 94.32 35.77 L 83.03 42.33 L 83.03 44.75 C 84.19 45.34 85.31 46.00 86.14 46.90 C 86.75 47.32 87.33 47.77 87.88 48.26 C 88.66 48.97 88.44 50.58 87.43 50.98 C 87.40 51.39 87.35 51.82 87.26 52.24 C 87.58 52.41 87.91 52.59 88.29 52.82 C 90.19 53.97 90.64 55.90 90.83 58.03 C 91.05 60.42 90.81 62.83 90.84 65.23 C 90.87 67.27 90.92 69.30 90.98 71.33 L 94.24 69.44 C 94.44 69.32 94.54 69.17 94.54 69.02 L 94.62 35.35 C 94.62 35.50 94.52 35.65 94.32 35.77 Z" fill="#3a3a77" fill-rule="nonzero" group-id="1,3,7,12,24,45,93" node-id="480" stroke="none" target-height="35.982" target-width="11.593903" target-x="83.0282" target-y="35.352"></path></g><path d="M 94.32 34.93 L 89.77 32.30 C 89.36 32.07 88.71 32.07 88.31 32.30 L 79.61 37.35 L 82.04 37.35 L 89.04 33.29 L 92.62 35.35 L 83.03 40.92 L 83.03 42.33 L 94.32 35.77 C 94.72 35.54 94.72 35.16 94.32 34.93 Z" fill="#6262aa" fill-rule="nonzero" group-id="1,3,7,12,24,45,94" node-id="485" stroke="none" target-height="10.267799" target-width="15.112106" target-x="79.6104" target-y="32.0663"></path></g></g></g><g node-id="1006"><g node-id="1018"><g node-id="1039"><g node-id="1088"><g node-id="1115"><path d="M 71.83 75.78 L 82.09 69.82 L 82.07 71.14 L 71.82 77.10 Z" fill="#83a1cc" fill-rule="nonzero" group-id="1,3,7,13,25,46,95,122" node-id="501" stroke="none" target-height="7.285095" target-width="10.268997" target-x="71.8169" target-y="69.8159"></path></g><g node-id="1116"><path d="M 55.09 66.11 L 63.07 61.48 L 79.81 71.14 L 71.83 75.78 Z" fill="#dee7f8" fill-rule="nonzero" group-id="1,3,7,13,25,46,95,123" node-id="506" stroke="none" target-height="14.300701" target-width="24.717297" target-x="55.0899" target-y="61.4761"></path></g><path d="M 71.83 75.78 L 71.82 77.10 L 55.08 67.44 L 55.09 66.11 Z" fill="#9eb5df" fill-rule="nonzero" group-id="1,3,7,13,25,46,95,124" node-id="511" stroke="none" target-height="10.988197" target-width="16.75" target-x="55.0784" target-y="66.1128"></path></g></g><g node-id="1040"><g node-id="1089"><g node-id="1118"><g node-id="1132"><path d="M 71.91 61.41 L 71.91 71.61 L 73.33 70.79 L 73.33 62.25 C 72.86 61.97 72.39 61.68 71.91 61.41 Z" fill="#83a1cc" fill-rule="nonzero" group-id="1,3,7,13,25,47,96,125,139" node-id="524" stroke="none" target-height="10.195202" target-width="1.4121933" target-x="71.9147" target-y="61.4117"></path></g><path d="M 63.45 56.92 L 63.45 66.72 L 71.91 71.61 L 71.91 61.41 C 69.14 59.82 66.30 58.37 63.45 56.92 Z" fill="#9eb5df" fill-rule="nonzero" group-id="1,3,7,13,25,47,96,125,140" node-id="529" stroke="none" target-height="14.689903" target-width="8.461304" target-x="63.4534" target-y="56.917"></path></g></g></g><g node-id="1041"><g node-id="1090"><g node-id="1119"><g node-id="1134"><path d="M 92.13 44.04 L 92.06 76.31 C 92.05 76.78 91.89 77.12 91.62 77.27 L 90.58 77.88 C 90.31 78.05 89.92 78.03 89.50 77.79 L 50.10 55.04 C 49.28 54.56 48.60 53.40 48.61 52.44 L 48.69 20.17 C 48.69 19.67 48.87 19.32 49.17 19.18 C 49.15 19.19 49.14 19.20 49.12 19.21 L 50.17 18.59 C 50.45 18.43 50.82 18.46 51.24 18.70 L 90.64 41.44 C 91.47 41.92 92.14 43.08 92.13 44.04 Z" fill="#83a1cc" fill-rule="nonzero" group-id="1,3,7,13,25,48,97,126,141" node-id="543" stroke="none" target-height="59.615997" target-width="43.5317" target-x="48.6036" target-y="18.4339"></path></g><path d="M 91.09 44.65 L 91.01 76.92 C 91.01 77.87 90.33 78.27 89.50 77.78 L 50.11 55.04 C 49.27 54.56 48.60 53.39 48.60 52.44 L 48.68 20.17 C 48.68 19.22 49.36 18.84 50.19 19.31 L 89.58 42.06 C 90.42 42.53 91.09 43.70 91.09 44.65 Z" fill="#b6cbea" fill-rule="nonzero" group-id="1,3,7,13,25,48,97,126" node-id="546" stroke="none" target-height="59.428" target-width="42.4841" target-x="48.6026" target-y="18.8375"></path><path d="M 49.96 20.65 L 49.90 49.96 L 89.74 72.97 L 89.81 43.66 Z" fill="#3a3a77" fill-rule="nonzero" group-id="1,3,7,13,25,48,97,126" node-id="548" stroke="none" target-height="52.314606" target-width="39.909996" target-x="49.8963" target-y="20.6533"></path><path d="M 67.98 61.60 C 67.48 61.31 67.08 61.54 67.07 62.11 C 67.07 62.69 67.47 63.38 67.97 63.67 C 68.47 63.95 68.87 63.72 68.87 63.15 C 68.88 62.58 68.47 61.89 67.98 61.60 Z" fill="#83a1cc" fill-rule="nonzero" group-id="1,3,7,13,25,48,97,126" node-id="550" stroke="none" target-height="2.641899" target-width="1.8030014" target-x="67.0722" target-y="61.3126"></path></g></g></g></g><g node-id="1019"><g node-id="1042"><path d="M 76.31 37.99 L 76.31 39.73 L 75.27 39.73 L 75.27 38.11 Z" fill="#83a1cc" fill-rule="nonzero" group-id="1,3,7,13,26,49" node-id="560" stroke="none" target-height="1.7397003" target-width="1.036499" target-x="75.2745" target-y="37.9931"></path><g node-id="1091"><path d="M 87.11 45.63 L 87.04 68.21 L 60.89 53.11 L 60.96 30.53 Z" fill="#9eb5df" fill-rule="nonzero" group-id="1,3,7,13,26,49,98" node-id="564" stroke="none" target-height="37.6732" target-width="26.2206" target-x="60.8922" target-y="30.533"></path></g><g node-id="1092"><path d="M 87.93 45.16 L 87.86 67.73 L 87.04 68.21 L 87.11 45.63 Z" fill="#83a1cc" fill-rule="nonzero" group-id="1,3,7,13,26,49,99" node-id="569" stroke="none" target-height="23.050999" target-width="0.88879395" target-x="87.0444" target-y="45.1552"></path></g><path d="M 76.15 37.77 C 76.36 37.89 76.36 38.09 76.15 38.21 L 76.03 38.28 L 87.93 45.16 L 87.11 45.63 L 86.41 45.23 L 61.66 30.94 L 60.96 30.53 L 61.78 30.06 L 73.68 36.93 L 73.81 36.86 C 74.02 36.73 74.36 36.73 74.57 36.86 L 76.15 37.77 Z" fill="#dee7f8" fill-rule="nonzero" group-id="1,3,7,13,26,49,100" node-id="574" stroke="none" target-height="15.5758" target-width="26.972595" target-x="60.9606" target-y="30.0562"></path></g><g node-id="1043"><g node-id="1094"><g node-id="1120"><path d="M 73.15 40.06 L 73.08 60.62 C 71.57 60.16 66.99 58.73 59.50 54.41 L 59.57 33.84 C 67.06 38.17 71.64 39.60 73.15 40.06 Z" fill="#dee7f8" fill-rule="nonzero" group-id="1,3,7,13,26,50,101,127" node-id="584" stroke="none" target-height="26.779198" target-width="13.649403" target-x="59.5005" target-y="33.8441"></path></g><g node-id="1121"><path d="M 83.60 47.72 L 83.53 68.28 C 76.04 63.96 73.88 61.50 73.08 60.62 L 73.15 40.06 C 73.95 40.93 76.11 43.39 83.60 47.72 Z" fill="#dee7f8" fill-rule="nonzero" group-id="1,3,7,13,26,50,101,128" node-id="589" stroke="none" target-height="28.221996" target-width="10.515198" target-x="73.0835" target-y="40.0601"></path></g><path d="M 73.15 40.07 C 73.03 40.03 72.89 39.99 72.74 39.94 L 72.74 60.52 C 72.87 60.56 72.98 60.60 73.09 60.63 C 73.22 60.79 73.42 61.00 73.68 61.26 L 73.68 40.63 C 73.46 40.40 73.28 40.21 73.15 40.07 Z" fill="#9eb5df" fill-rule="nonzero" group-id="1,3,7,13,26,50,101" node-id="592" stroke="none" target-height="21.3241" target-width="0.93730164" target-x="72.7401" target-y="39.9388"></path><path d="M 86.08 46.28 L 86.02 66.84 L 83.53 68.28 L 83.60 47.72 Z" fill="#b6cbea" fill-rule="nonzero" group-id="1,3,7,13,26,50,101,129" node-id="596" stroke="none" target-height="22.006104" target-width="2.5491943" target-x="83.5323" target-y="46.2761"></path><path d="M 86.08 46.28 L 83.60 47.72 C 76.11 43.39 73.95 40.93 73.15 40.06 C 71.64 39.60 67.06 38.17 59.57 33.84 L 62.05 32.40 L 86.08 46.28 Z" fill="#ffffff" fill-rule="nonzero" group-id="1,3,7,13,26,50,101,130" node-id="601" stroke="none" target-height="15.3176" target-width="26.514599" target-x="59.5669" target-y="32.4013"></path></g><g node-id="1095"><g node-id="1124"><g node-id="1135"><path d="M 60.88 36.35 L 60.88 37.03 C 64.73 39.17 68.29 40.81 71.49 41.93 L 71.49 41.29 C 68.29 40.16 64.74 38.51 60.88 36.35 Z" fill="#b6cbea" fill-rule="nonzero" group-id="1,3,7,13,26,50,102,131,142" node-id="611" stroke="none" target-height="5.5792007" target-width="10.606998" target-x="60.8792" target-y="36.3477"></path></g><path d="M 82.15 48.62 C 78.10 46.18 75.88 44.41 74.64 43.26 L 74.64 44.07 C 76.00 45.27 78.27 47.00 82.15 49.32 L 82.15 48.62 Z" fill="#b6cbea" fill-rule="nonzero" group-id="1,3,7,13,26,50,102,131,143" node-id="616" stroke="none" target-height="6.057701" target-width="7.5158005" target-x="74.638" target-y="43.263"></path></g><g node-id="1125"><g node-id="1137"><path d="M 60.88 53.21 L 60.88 53.90 C 64.73 56.04 68.29 57.68 71.49 58.79 L 71.49 58.16 C 68.29 57.03 64.74 55.37 60.88 53.21 Z" fill="#b6cbea" fill-rule="nonzero" group-id="1,3,7,13,26,50,102,132,144" node-id="624" stroke="none" target-height="5.5792007" target-width="10.606998" target-x="60.8792" target-y="53.2136"></path></g><path d="M 82.15 65.49 C 78.10 63.05 75.88 61.28 74.64 60.13 L 74.64 60.93 C 76.00 62.13 78.28 63.87 82.15 66.19 L 82.15 65.49 Z" fill="#b6cbea" fill-rule="nonzero" group-id="1,3,7,13,26,50,102,132,145" node-id="629" stroke="none" target-height="6.057102" target-width="7.5158005" target-x="74.638" target-y="60.1293"></path></g><g node-id="1126"><g node-id="1139"><path d="M 60.88 50.40 L 60.88 51.09 C 64.73 53.23 68.29 54.87 71.49 55.98 L 71.49 55.35 C 68.29 54.22 64.74 52.56 60.88 50.40 Z" fill="#b6cbea" fill-rule="nonzero" group-id="1,3,7,13,26,50,102,133,146" node-id="637" stroke="none" target-height="5.5792007" target-width="10.606998" target-x="60.8792" target-y="50.4025"></path></g><path d="M 82.15 62.68 C 78.10 60.24 75.88 58.47 74.64 57.32 L 74.64 58.12 C 76.00 59.32 78.27 61.06 82.15 63.38 L 82.15 62.68 Z" fill="#b6cbea" fill-rule="nonzero" group-id="1,3,7,13,26,50,102,133,147" node-id="642" stroke="none" target-height="6.0573997" target-width="7.5158005" target-x="74.638" target-y="57.3181"></path></g><g node-id="1127"><g node-id="1141"><path d="M 60.88 47.59 L 60.88 48.28 C 64.73 50.42 68.29 52.06 71.49 53.17 L 71.49 52.54 C 68.29 51.41 64.74 49.75 60.88 47.59 Z" fill="#b6cbea" fill-rule="nonzero" group-id="1,3,7,13,26,50,102,134,148" node-id="650" stroke="none" target-height="5.579197" target-width="10.606998" target-x="60.8792" target-y="47.5917"></path></g><path d="M 82.15 59.87 C 78.10 57.42 75.88 55.66 74.64 54.51 L 74.64 55.31 C 76.00 56.51 78.27 58.25 82.15 60.56 L 82.15 59.87 Z" fill="#b6cbea" fill-rule="nonzero" group-id="1,3,7,13,26,50,102,134,149" node-id="655" stroke="none" target-height="6.0578003" target-width="7.5158005" target-x="74.638" target-y="54.507"></path></g><g node-id="1128"><g node-id="1143"><path d="M 60.88 44.78 L 60.88 45.47 C 64.73 47.61 68.29 49.25 71.49 50.36 L 71.49 49.72 C 68.29 48.60 64.74 46.94 60.88 44.78 Z" fill="#b6cbea" fill-rule="nonzero" group-id="1,3,7,13,26,50,102,135,150" node-id="663" stroke="none" target-height="5.5792007" target-width="10.606998" target-x="60.8792" target-y="44.7805"></path></g><path d="M 82.15 57.06 C 78.10 54.61 75.88 52.85 74.64 51.70 L 74.64 52.50 C 76.00 53.70 78.27 55.44 82.15 57.75 L 82.15 57.06 Z" fill="#b6cbea" fill-rule="nonzero" group-id="1,3,7,13,26,50,102,135,151" node-id="668" stroke="none" target-height="6.0575027" target-width="7.5158005" target-x="74.638" target-y="51.6961"></path></g><g node-id="1129"><g node-id="1145"><path d="M 60.88 41.97 L 60.88 42.66 C 64.73 44.80 68.29 46.44 71.49 47.55 L 71.49 46.91 C 68.29 45.79 64.74 44.13 60.88 41.97 Z" fill="#b6cbea" fill-rule="nonzero" group-id="1,3,7,13,26,50,102,136,152" node-id="676" stroke="none" target-height="5.5788994" target-width="10.606998" target-x="60.8792" target-y="41.9697"></path></g><path d="M 82.15 54.25 C 78.10 51.80 75.88 50.04 74.64 48.89 L 74.64 49.69 C 76.00 50.89 78.27 52.63 82.15 54.94 L 82.15 54.25 Z" fill="#b6cbea" fill-rule="nonzero" group-id="1,3,7,13,26,50,102,136,153" node-id="681" stroke="none" target-height="6.0572014" target-width="7.5158005" target-x="74.638" target-y="48.8853"></path></g><g node-id="1130"><g node-id="1147"><path d="M 60.88 39.16 L 60.88 39.84 C 64.73 41.98 68.29 43.63 71.49 44.74 L 71.49 44.10 C 68.29 42.98 64.74 41.32 60.88 39.16 Z" fill="#b6cbea" fill-rule="nonzero" group-id="1,3,7,13,26,50,102,137,154" node-id="689" stroke="none" target-height="5.5792007" target-width="10.606998" target-x="60.8792" target-y="39.1585"></path></g><path d="M 82.15 51.44 C 78.10 48.99 75.88 47.23 74.64 46.07 L 74.64 46.88 C 76.00 48.08 78.27 49.82 82.15 52.13 L 82.15 51.44 Z" fill="#b6cbea" fill-rule="nonzero" group-id="1,3,7,13,26,50,102,137,155" node-id="694" stroke="none" target-height="6.057499" target-width="7.5158005" target-x="74.638" target-y="46.0741"></path></g></g></g></g><g node-id="1020"><g node-id="1044"><path d="M 51.11 28.68 L 51.11 29.67 L 58.33 33.84 L 58.33 32.85 Z" fill="#b6cbea" fill-rule="nonzero" group-id="1,3,7,13,27,51" node-id="705" stroke="none" target-height="5.156" target-width="7.2152977" target-x="51.1128" target-y="28.6798"></path></g><g node-id="1045"><g node-id="1096"><path d="M 51.11 43.82 L 51.11 44.82 L 54.02 46.49 L 54.02 45.50 Z" fill="#b6cbea" fill-rule="nonzero" group-id="1,3,7,13,27,52,103" node-id="712" stroke="none" target-height="2.6680984" target-width="2.905899" target-x="51.1128" target-y="43.8245"></path></g><g node-id="1097"><path d="M 51.11 38.78 L 51.11 39.77 L 55.56 42.33 L 55.56 41.34 Z" fill="#b6cbea" fill-rule="nonzero" group-id="1,3,7,13,27,52,104" node-id="717" stroke="none" target-height="3.5569" target-width="4.445301" target-x="51.1128" target-y="38.7771"></path></g><g node-id="1098"><path d="M 51.11 41.30 L 51.11 42.29 L 57.85 46.18 L 57.85 45.19 Z" fill="#dee7f8" fill-rule="nonzero" group-id="1,3,7,13,27,52,105" node-id="722" stroke="none" target-height="4.8825035" target-width="6.741001" target-x="51.1128" target-y="41.3006"></path></g><g node-id="1099"><path d="M 51.11 31.20 L 51.11 32.20 L 53.07 33.32 L 53.07 32.33 Z" fill="#dee7f8" fill-rule="nonzero" group-id="1,3,7,13,27,52,106" node-id="727" stroke="none" target-height="2.120201" target-width="1.9567986" target-x="51.1128" target-y="31.2034"></path></g><g node-id="1100"><path d="M 51.11 33.73 L 51.11 34.72 L 54.91 36.91 L 54.92 35.92 Z" fill="#b6cbea" fill-rule="nonzero" group-id="1,3,7,13,27,52,107" node-id="732" stroke="none" target-height="3.1864014" target-width="3.8029976" target-x="51.1128" target-y="33.7269"></path></g><path d="M 56.89 39.59 L 51.11 36.25 L 51.11 37.25 L 56.89 40.58 Z" fill="#dee7f8" fill-rule="nonzero" group-id="1,3,7,13,27,52,108" node-id="737" stroke="none" target-height="4.3332977" target-width="5.7817" target-x="51.1128" target-y="36.2504"></path></g><g node-id="1046"><path d="M 51.11 26.16 L 51.11 27.15 L 57.14 30.63 L 57.14 29.63 Z" fill="#dee7f8" fill-rule="nonzero" group-id="1,3,7,13,27,53" node-id="743" stroke="none" target-height="4.4694004" target-width="6.0256004" target-x="51.1128" target-y="26.156"></path></g><path d="M 51.11 46.35 L 51.11 47.34 L 55.70 49.99 L 55.70 49.00 Z" fill="#dee7f8" fill-rule="nonzero" group-id="1,3,7,13,27,54" node-id="748" stroke="none" target-height="3.6399994" target-width="4.589199" target-x="51.1128" target-y="46.348"></path></g></g></g><g node-id="1001"><g node-id="1007"><g node-id="1021"><g node-id="1048"><g node-id="1102"><path d="M 30.16 62.67 L 43.52 70.43 L 43.94 70.19 L 53.10 64.91 C 53.51 64.67 53.84 64.10 53.84 63.64 C 53.83 63.40 53.75 63.24 53.62 63.17 L 40.26 55.40 C 40.39 55.48 40.48 55.64 40.48 55.87 C 40.48 56.34 40.15 56.91 39.75 57.14 L 30.58 62.43 L 30.16 62.67 Z" fill="#a6c2ff" fill-rule="nonzero" group-id="1,3,8,14,28,55,109" node-id="764" stroke="none" target-height="15.031597" target-width="23.6715" target-x="30.1648" target-y="55.4025"></path></g><g node-id="1103"><path d="M 43.47 68.23 L 31.12 61.05 L 31.13 62.74 L 43.48 69.92 Z" fill="#ffffff" fill-rule="nonzero" group-id="1,3,8,14,28,55,110" node-id="769" stroke="none" target-height="8.863903" target-width="12.353397" target-x="31.1249" target-y="61.052"></path></g><g node-id="1104"><path d="M 53.10 63.22 L 39.74 55.45 L 30.58 60.74 L 43.93 68.51 Z" fill="#eaeffa" fill-rule="nonzero" group-id="1,3,8,14,28,55,111" node-id="774" stroke="none" target-height="13.053097" target-width="22.521101" target-x="30.5757" target-y="55.4527"></path></g><g node-id="1105"><path d="M 53.62 63.16 L 40.26 55.40 C 40.13 55.32 39.94 55.34 39.74 55.45 L 53.10 63.22 C 53.30 63.10 53.49 63.09 53.62 63.16 Z" fill="#eaeffa" fill-rule="nonzero" group-id="1,3,8,14,28,55,112" node-id="779" stroke="none" target-height="7.891102" target-width="13.880199" target-x="39.7389" target-y="55.3243"></path></g><g node-id="1106"><path d="M 30.16 60.25 L 43.52 68.01 L 53.10 62.48 C 53.48 62.26 53.82 62.24 54.07 62.39 L 40.71 54.62 C 40.46 54.48 40.12 54.50 39.74 54.72 L 30.16 60.25 Z" fill="#a6c2ff" fill-rule="nonzero" group-id="1,3,8,14,28,55,113" node-id="784" stroke="none" target-height="13.528297" target-width="23.913301" target-x="30.1583" target-y="54.4812"></path></g><g node-id="1107"><path d="M 43.47 68.23 L 43.48 69.92 L 52.64 64.63 C 53.05 64.39 53.37 63.82 53.37 63.36 C 53.37 62.89 53.04 62.70 52.64 62.94 L 43.47 68.23 Z" fill="#dee7f8" fill-rule="nonzero" group-id="1,3,8,14,28,55,114" node-id="789" stroke="none" target-height="7.2117996" target-width="9.901302" target-x="43.4735" target-y="62.7041"></path></g><path d="M 43.52 68.01 L 43.52 68.74 L 43.93 68.51 L 53.10 63.22 C 53.50 62.98 53.83 63.17 53.83 63.64 C 53.83 64.10 53.51 64.67 53.10 64.90 L 43.94 70.19 L 43.53 70.43 L 43.53 71.17 L 53.10 65.64 C 53.86 65.20 54.47 64.14 54.47 63.27 C 54.47 62.40 53.85 62.04 53.09 62.48 L 43.52 68.01 Z" fill="#1e72c6" fill-rule="nonzero" group-id="1,3,8,14,28,55,115" node-id="794" stroke="none" target-height="9.127201" target-width="10.9561" target-x="43.5184" target-y="62.0434"></path></g></g><g node-id="1022"><path d="M 43.52 68.01 L 30.16 60.25 L 30.16 60.98 L 43.52 68.74 Z" fill="#6b9ef9" fill-rule="nonzero" group-id="1,3,8,14,29" node-id="801" stroke="none" target-height="8.4963" target-width="13.360001" target-x="30.1605" target-y="60.248"></path></g><path d="M 43.53 70.43 L 30.17 62.67 L 30.17 63.41 L 43.53 71.17 Z" fill="#6b9ef9" fill-rule="nonzero" group-id="1,3,8,14" node-id="804" stroke="none" target-height="8.501202" target-width="13.360001" target-x="30.1674" target-y="62.6693"></path></g><g node-id="1008"><g node-id="1023"><g node-id="1049"><path d="M 37.04 57.29 L 37.04 61.35 C 37.04 62.15 37.57 62.96 38.63 63.57 C 40.73 64.78 44.14 64.78 46.23 63.57 C 47.27 62.96 47.79 62.17 47.79 61.38 L 47.79 57.29 L 37.04 57.29 Z" fill="#2a2a5e" fill-rule="nonzero" group-id="1,3,8,15,30,56" node-id="813" stroke="none" target-height="7.4972" target-width="10.756901" target-x="37.036" target-y="57.2866"></path></g></g><g node-id="1024"><g node-id="1050"><g node-id="1109"><path d="M 42.52 61.34 L 50.37 56.78 L 50.36 57.39 L 42.51 61.96 Z" fill="#3a3a77" fill-rule="nonzero" group-id="1,3,8,15,31,57,116" node-id="823" stroke="none" target-height="5.179302" target-width="7.865299" target-x="42.5077" target-y="56.779"></path></g><g node-id="1110"><path d="M 34.47 56.70 L 42.32 52.13 L 50.37 56.78 L 42.52 61.34 Z" fill="#6262aa" fill-rule="nonzero" group-id="1,3,8,15,31,57,117" node-id="828" stroke="none" target-height="9.211601" target-width="15.9034" target-x="34.4696" target-y="52.1316"></path></g><path d="M 42.52 61.34 L 42.51 61.96 L 34.46 57.31 L 34.47 56.70 Z" fill="#4c4a8b" fill-rule="nonzero" group-id="1,3,8,15,31,57,118" node-id="833" stroke="none" target-height="5.2624016" target-width="8.060802" target-x="34.4582" target-y="56.6959"></path></g></g><g node-id="1025"><path d="M 46.31 61.45 C 46.19 61.67 46.04 61.98 46.04 62.15 C 46.04 62.43 46.26 62.66 46.54 62.66 C 46.82 62.66 47.05 62.43 47.05 62.15 C 47.05 61.98 46.90 61.67 46.77 61.45 L 46.31 61.45 Z" fill="#b6cbea" fill-rule="nonzero" group-id="1,3,8,15,32" node-id="840" stroke="none" target-height="1.2004967" target-width="1.013401" target-x="46.0365" target-y="61.455"></path><g node-id="1051"><path d="M 46.80 61.28 L 46.80 61.43 C 46.80 61.46 46.77 61.50 46.72 61.53 C 46.62 61.59 46.46 61.59 46.36 61.53 C 46.31 61.50 46.29 61.46 46.29 61.42 L 46.29 61.28 C 46.29 61.32 46.31 61.35 46.36 61.38 C 46.46 61.44 46.62 61.44 46.72 61.38 C 46.77 61.35 46.80 61.32 46.80 61.28 Z" fill="#9eb5df" fill-rule="nonzero" group-id="1,3,8,15,32,58" node-id="844" stroke="none" target-height="0.30859756" target-width="0.50829697" target-x="46.289" target-y="61.2774"></path></g><path d="M 46.72 61.17 C 46.82 61.23 46.82 61.32 46.72 61.38 C 46.62 61.44 46.46 61.44 46.36 61.38 C 46.26 61.32 46.26 61.23 46.36 61.17 C 46.46 61.12 46.62 61.12 46.72 61.17 Z" fill="#dee7f8" fill-rule="nonzero" group-id="1,3,8,15,32,59" node-id="849" stroke="none" target-height="0.32309723" target-width="0.55799866" target-x="46.2645" target-y="61.1164"></path></g><g node-id="1026"><g node-id="1053"><path d="M 46.67 61.26 C 46.67 61.28 46.65 61.30 46.63 61.31 C 46.58 61.35 46.49 61.35 46.44 61.31 C 46.41 61.30 46.40 61.28 46.40 61.26 L 46.39 59.09 L 42.25 56.68 L 42.38 56.45 L 46.66 58.94 L 46.67 61.26 Z" fill="#9eb5df" fill-rule="nonzero" group-id="1,3,8,15,33,60" node-id="857" stroke="none" target-height="4.899601" target-width="4.4174995" target-x="42.249" target-y="56.4475"></path></g></g><g node-id="1027"><g node-id="1054"><g node-id="1112"><path d="M 43.65 56.54 L 43.65 56.86 C 43.65 57.04 43.53 57.23 43.29 57.36 C 42.81 57.64 42.03 57.64 41.54 57.36 C 41.30 57.22 41.18 57.04 41.18 56.86 L 41.18 56.53 C 41.18 56.71 41.30 56.90 41.54 57.04 C 42.03 57.32 42.81 57.32 43.29 57.04 C 43.53 56.90 43.65 56.72 43.65 56.54 Z" fill="#9eb5df" fill-rule="nonzero" group-id="1,3,8,15,34,61,119" node-id="867" stroke="none" target-height="1.1147003" target-width="2.4700966" target-x="41.1803" target-y="56.5297"></path></g><path d="M 43.29 56.03 C 43.77 56.31 43.77 56.76 43.29 57.04 C 42.81 57.32 42.03 57.32 41.54 57.04 C 41.06 56.76 41.06 56.31 41.54 56.03 C 42.02 55.75 42.80 55.75 43.29 56.03 Z" fill="#dee7f8" fill-rule="nonzero" group-id="1,3,8,15,34,61,120" node-id="872" stroke="none" target-height="1.5699005" target-width="2.711502" target-x="41.0608" target-y="55.7476"></path></g></g></g></g><g node-id="1002"><g node-id="1009"><g node-id="1028"><path d="M 61.65 76.02 L 55.45 79.62 L 49.79 76.35 L 55.98 72.75 Z" fill="#dee7f8" fill-rule="nonzero" group-id="1,3,9,16,35" node-id="885" stroke="none" target-height="6.873604" target-width="11.8632965" target-x="49.7857" target-y="72.7463"></path></g><g node-id="1029"><path d="M 57.82 74.72 L 56.66 75.39 L 55.09 74.49 L 56.24 73.81 Z" fill="#83a1cc" fill-rule="nonzero" group-id="1,3,9,16,36" node-id="890" stroke="none" target-height="1.5796967" target-width="2.7285995" target-x="55.0875" target-y="73.8143"></path></g><g node-id="1030"><path d="M 54.36 76.73 L 53.20 77.40 L 51.63 76.50 L 52.78 75.83 Z" fill="#83a1cc" fill-rule="nonzero" group-id="1,3,9,16,37" node-id="895" stroke="none" target-height="1.5796967" target-width="2.7285004" target-x="51.6273" target-y="75.8251"></path></g><path d="M 55.45 79.62 L 55.44 82.38 L 49.77 79.11 L 49.78 76.35 Z" fill="#9eb5df" fill-rule="nonzero" group-id="1,3,9,16,38" node-id="900" stroke="none" target-height="6.0298996" target-width="5.677498" target-x="49.7731" target-y="76.3489"></path></g><g node-id="1010"><g node-id="1032"><g node-id="1055"><path d="M 74.86 84.92 L 74.84 89.45 C 74.84 89.03 74.56 88.61 74.01 88.29 C 72.91 87.66 71.13 87.66 70.04 88.29 C 69.50 88.61 69.23 89.02 69.22 89.44 L 69.24 84.90 C 69.24 84.49 69.52 84.08 70.06 83.76 C 71.15 83.13 72.93 83.13 74.03 83.76 C 74.58 84.08 74.86 84.50 74.86 84.92 Z" fill="#3887e5" fill-rule="nonzero" group-id="1,3,9,17,39,62" node-id="910" stroke="none" target-height="6.325897" target-width="5.6323013" target-x="69.2248" target-y="83.1266"></path></g><g node-id="1056"><path d="M 74.03 83.76 C 73.71 83.58 73.35 83.46 72.96 83.38 L 72.96 87.92 C 73.34 88.00 73.70 88.12 74.01 88.29 C 74.56 88.61 74.84 89.03 74.84 89.45 L 74.86 84.92 C 74.86 84.50 74.58 84.08 74.03 83.76 Z" fill="#1e72c6" fill-rule="nonzero" group-id="1,3,9,17,39,63" node-id="915" stroke="none" target-height="6.071396" target-width="1.8968048" target-x="72.9603" target-y="83.3811"></path></g><g node-id="1057"><path d="M 76.95 84.52 L 76.94 87.55 C 76.94 88.37 76.39 89.19 75.31 89.82 C 73.12 91.10 69.57 91.10 67.38 89.83 L 54.16 82.20 L 54.17 79.17 L 67.39 86.80 C 69.58 88.07 73.14 88.07 75.32 86.80 C 76.40 86.17 76.95 85.34 76.95 84.52 Z" fill="#1e72c6" fill-rule="nonzero" group-id="1,3,9,17,39,64" node-id="920" stroke="none" target-height="11.922501" target-width="22.7882" target-x="54.1632" target-y="79.1739"></path></g><path d="M 75.29 82.21 C 77.49 83.47 77.50 85.53 75.32 86.80 C 73.14 88.07 69.58 88.07 67.39 86.80 L 54.17 79.17 L 62.08 74.58 L 75.29 82.21 Z M 70.43 85.85 C 71.33 86.37 72.78 86.37 73.68 85.85 C 74.57 85.33 74.56 84.49 73.66 83.97 C 72.77 83.45 71.32 83.45 70.42 83.97 C 69.53 84.49 69.53 85.33 70.43 85.85" fill="#a6c2ff" fill-rule="nonzero" group-id="1,3,9,17,39,65" node-id="925" stroke="none" target-height="13.4925" target-width="23.3294" target-x="54.1743" target-y="74.5773"></path></g></g></g><g node-id="1003"><g node-id="1011"><g node-id="1033"><g node-id="1059"><g node-id="1114"><g node-id="1131"><g node-id="1149"><path d="M 67.40 80.37 C 66.58 81.16 64.54 81.25 64.54 81.25 L 64.54 81.34 C 64.54 81.47 64.45 81.60 64.34 81.63 L 63.23 81.75 C 63.12 81.78 63.07 81.70 63.05 81.57 C 63.00 81.01 62.95 80.33 63.01 80.15 C 63.08 79.91 63.56 80.71 64.64 79.58 C 65.50 79.85 66.64 79.56 67.12 79.40 C 67.66 79.22 68.23 79.58 67.40 80.37 Z" fill="#2a2a5e" fill-rule="nonzero" group-id="1,3,10,18,40,66,121,138,156" node-id="945" stroke="none" target-height="2.555397" target-width="5.270603" target-x="62.9547" target-y="79.2229"></path></g><g node-id="1150"><g node-id="1151"><g node-id="1152"><g node-id="1153"><g node-id="1154"><g node-id="1155"><path d="M 65.37 72.32 C 65.21 72.88 65.11 73.46 65.07 74.05 C 64.94 75.73 64.72 79.02 64.78 79.81 C 64.45 80.38 63.81 80.46 63.02 80.30 C 63.02 80.30 62.15 76.40 62.51 73.67 C 62.62 72.78 62.69 71.89 62.62 70.99 C 62.54 69.91 62.36 68.52 61.96 67.32 C 61.16 64.96 62.15 63.40 62.37 63.00 L 66.35 64.27 C 66.35 64.27 66.68 67.83 65.37 72.32 Z" fill="#3a3a77" fill-rule="nonzero" group-id="1,3,10,18,40,66,121,138,157,158,159,160,161,162" node-id="960" stroke="none" target-height="17.458904" target-width="5.518402" target-x="61.1634" target-y="62.9979"></path></g><path d="M 70.56 83.34 C 69.62 83.82 67.20 83.19 67.20 83.19 L 67.20 83.35 C 67.20 83.48 67.09 83.57 66.97 83.57 L 65.70 83.47 C 65.58 83.47 65.49 83.36 65.50 83.23 C 65.56 82.75 65.69 81.64 65.75 81.48 C 65.83 81.27 66.20 81.92 67.43 81.19 C 68.21 81.70 69.69 82.24 70.24 82.26 C 70.85 82.28 71.50 82.85 70.56 83.34 Z" fill="#2a2a5e" fill-rule="nonzero" group-id="1,3,10,18,40,66,121,138,157,158,159,160,161" node-id="963" stroke="none" target-height="2.6327057" target-width="6.014099" target-x="65.4893" target-y="81.1898"></path><path d="M 68.06 73.75 C 67.89 74.31 67.80 74.89 67.76 75.48 C 67.63 77.16 67.40 80.45 67.47 81.25 C 67.14 81.81 66.50 81.89 65.71 81.73 C 65.71 81.73 64.86 77.92 65.18 75.20 C 65.30 74.23 65.37 73.26 65.28 72.28 C 65.17 71.14 64.95 69.69 64.46 68.54 C 63.53 66.33 64.15 64.09 64.37 63.69 L 69.04 65.70 C 69.04 65.70 69.38 69.26 68.06 73.75 Z" fill="#4c4a8b" fill-rule="nonzero" group-id="1,3,10,18,40,66,121,138,157,158,159,160,161,163" node-id="967" stroke="none" target-height="18.202301" target-width="5.849102" target-x="63.5275" target-y="63.6894"></path></g></g></g></g></g></g></g></g></g></g><path d="M 61.63 52.45 C 61.50 53.82 61.53 55.49 61.64 57.44 C 61.66 57.44 62.06 60.91 63.33 62.82 C 64.25 62.76 64.34 62.57 64.46 62.30 C 63.91 60.55 63.81 59.14 63.85 57.11 C 63.87 56.60 64.11 54.86 64.54 53.28 C 64.70 52.70 64.44 52.03 63.92 51.64 C 62.97 50.93 61.72 51.40 61.63 52.45 Z" fill="#3887e5" fill-rule="nonzero" group-id="1,3,10" node-id="980" stroke="none" target-height="11.8908" target-width="3.2001038" target-x="61.4992" target-y="50.9266"></path><path d="M 69.44 54.55 C 68.28 54.02 69.40 53.84 68.64 53.21 C 67.93 52.64 65.92 51.79 65.92 51.79 C 65.92 51.79 64.88 52.20 63.63 51.22 C 63.63 51.22 61.66 50.98 61.66 52.76 C 61.66 53.54 61.67 54.21 61.79 54.94 C 62.27 57.94 62.29 61.02 61.82 64.01 C 61.81 64.05 61.81 64.08 61.80 64.11 C 61.80 64.11 66.66 68.22 69.04 65.70 C 69.04 65.70 68.93 64.69 68.81 63.44 C 68.69 62.29 68.46 58.61 69.65 57.11 C 70.34 56.25 70.64 55.10 69.44 54.55 Z" fill="#6b9ef9" fill-rule="nonzero" group-id="1,3,10" node-id="982" stroke="none" target-height="17.245296" target-width="8.981697" target-x="61.6622" target-y="50.9752"></path><path d="M 68.80 47.77 C 68.65 47.27 68.69 46.68 68.69 46.68 L 65.83 47.03 C 65.83 47.03 65.54 53.35 67.33 51.38 C 69.13 49.41 68.94 48.27 68.80 47.77 Z" fill="#ecb4bf" fill-rule="nonzero" group-id="1,3,10" node-id="984" stroke="none" target-height="6.667099" target-width="3.5870972" target-x="65.5388" target-y="46.6824"></path><path d="M 68.80 47.45 C 68.50 47.72 68.27 48.01 68.14 48.36 C 68.01 48.72 67.82 49.02 67.28 49.04 C 66.76 49.08 66.95 49.62 67.10 49.92 C 67.10 49.93 67.10 49.93 67.10 49.94 C 67.98 51.75 65.88 55.00 64.14 53.97 C 63.97 53.86 63.81 53.74 63.68 53.60 C 63.57 53.49 63.52 53.34 63.51 53.18 C 63.48 52.63 63.42 50.00 63.33 49.72 C 62.85 48.05 63.29 46.34 64.47 45.47 C 65.52 44.69 66.65 44.91 67.73 45.38 C 68.54 45.74 69.01 46.56 68.80 47.45 Z" fill="#a0533f" fill-rule="nonzero" group-id="1,3,10" node-id="986" stroke="none" target-height="10.310101" target-width="6.163601" target-x="62.8494" target-y="44.6865"></path><path d="M 78.35 47.76 C 78.11 47.67 77.85 47.62 77.74 47.70 C 77.73 47.71 77.72 47.66 77.72 47.60 C 77.71 47.48 77.85 46.76 77.90 46.51 C 77.91 46.44 77.88 46.36 77.83 46.32 C 77.83 46.32 77.82 46.32 77.82 46.32 C 77.78 46.29 77.75 46.30 77.73 46.40 C 77.68 46.60 77.45 46.99 77.44 47.62 C 77.42 48.00 77.39 48.05 77.36 48.03 C 77.34 48.01 77.33 47.98 77.33 47.98 C 77.32 47.96 77.24 47.64 77.22 47.55 C 77.22 47.49 77.09 47.14 76.95 47.02 C 76.90 46.99 76.86 46.98 76.81 47.00 C 76.82 47.00 76.85 47.16 76.92 47.32 C 76.98 47.49 77.04 48.01 77.04 48.04 C 77.04 48.06 77.05 48.35 77.18 48.71 C 77.31 49.07 77.30 49.41 77.22 49.82 L 77.34 49.90 L 78.11 49.90 C 78.15 49.80 78.18 49.70 78.23 49.66 C 78.30 49.59 78.54 49.02 78.72 48.56 C 78.85 48.24 78.68 47.87 78.35 47.76 Z" fill="#ecb4bf" fill-rule="nonzero" group-id="1,3,10,19" node-id="990" stroke="none" target-height="3.6122017" target-width="2.0444946" target-x="76.8094" target-y="46.2908"></path><path d="M 69.30 56.12 C 70.68 55.61 72.26 54.82 74.07 53.84 C 74.06 53.82 77.16 51.89 78.30 49.92 C 77.75 49.14 77.52 49.14 77.20 49.16 C 75.81 50.44 74.53 51.17 72.56 52.06 C 72.06 52.28 70.27 52.86 68.52 53.20 C 67.88 53.33 67.38 53.86 67.29 54.49 C 67.12 55.64 68.24 56.52 69.30 56.12 Z" fill="#3887e5" fill-rule="nonzero" group-id="1,3,10,19" node-id="992" stroke="none" target-height="7.3731003" target-width="11.182907" target-x="67.118" target-y="49.1431"></path></g></g></g></svg>